HIERARCHY
ROOT Hips
{
  OFFSET 5.72205e-005 65.662 3.42586
  CHANNELS 6 Xposition Yposition Zposition Zrotation Xrotation Yrotation
  JOINT Chest
  {
    OFFSET 0 8.7983 -4.7612
    CHANNELS 6 Xposition Yposition Zposition Zrotation Xrotation Yrotation
    JOINT Chest2
    {
      OFFSET 0 8.0291 0.4195
      CHANNELS 6 Xposition Yposition Zposition Zrotation Xrotation Yrotation
      JOINT Chest3
      {
        OFFSET 0 9.9351 -2.2114
        CHANNELS 6 Xposition Yposition Zposition Zrotation Xrotation Yrotation
        JOINT Neck
        {
          OFFSET 0 22.3885 -0.4656
          CHANNELS 6 Xposition Yposition Zposition Zrotation Xrotation Yrotation
          JOINT Head
          {
            OFFSET -0.0001 12.643 3.4389
            CHANNELS 6 Xposition Yposition Zposition Zrotation Xrotation Yrotation
            End Site
            {
              OFFSET 0.0001 17.6655 0.5274
            }
          }
        }
        JOINT LeftCollar
        {
          OFFSET 2.2603 21.606 7.4023
          CHANNELS 6 Xposition Yposition Zposition Zrotation Xrotation Yrotation
          JOINT LeftShoulder
          {
            OFFSET 13.5163 -1.1332 -5.0146
            CHANNELS 6 Xposition Yposition Zposition Zrotation Xrotation Yrotation
            JOINT LeftElbow
            {
              OFFSET -0.0995 -28.05 -0.2431
              CHANNELS 6 Xposition Yposition Zposition Zrotation Xrotation Yrotation
              JOINT LeftWrist
              {
                OFFSET 0.0679 -23.3996 -0.1402
                CHANNELS 6 Xposition Yposition Zposition Zrotation Xrotation Yrotation
                JOINT LeftFinger1
                {
                  OFFSET 0.7932 -9.069 2.5189
                  CHANNELS 6 Xposition Yposition Zposition Zrotation Xrotation Yrotation
                  JOINT LeftFinger11
                  {
                    OFFSET -0.8272 -3.3923 0.5977
                    CHANNELS 6 Xposition Yposition Zposition Zrotation Xrotation Yrotation
                    JOINT LeftFinger12
                    {
                      OFFSET -0.5649 -2.3158 0.4082
                      CHANNELS 6 Xposition Yposition Zposition Zrotation Xrotation Yrotation
                      End Site
                      {
                        OFFSET -0.4919 -1.6479 0.2673
                      }
                    }
                  }
                }
                JOINT LeftFinger2
                {
                  OFFSET 0.9159 -9.2044 0.2193
                  CHANNELS 6 Xposition Yposition Zposition Zrotation Xrotation Yrotation
                  JOINT LeftFinger21
                  {
                    OFFSET 0.0117 -4.1944 -0.0248
                    CHANNELS 6 Xposition Yposition Zposition Zrotation Xrotation Yrotation
                    JOINT LeftFinger22
                    {
                      OFFSET 0.0071 -2.3249 -0.0142
                      CHANNELS 6 Xposition Yposition Zposition Zrotation Xrotation Yrotation
                      End Site
                      {
                        OFFSET -0.1475 -2.0882 0.0028
                      }
                    }
                  }
                }
                JOINT LeftFinger3
                {
                  OFFSET 0.6113 -8.7231 -2.0637
                  CHANNELS 6 Xposition Yposition Zposition Zrotation Xrotation Yrotation
                  JOINT LeftFinger31
                  {
                    OFFSET -0.1927 -3.8059 -0.2383
                    CHANNELS 6 Xposition Yposition Zposition Zrotation Xrotation Yrotation
                    JOINT LeftFinger32
                    {
                      OFFSET -0.1091 -2.1688 -0.1362
                      CHANNELS 6 Xposition Yposition Zposition Zrotation Xrotation Yrotation
                      End Site
                      {
                        OFFSET -0.2358 -1.9176 -0.0906
                      }
                    }
                  }
                }
                JOINT LeftFinger4
                {
                  OFFSET -0.6151 -8.0947 -3.5641
                  CHANNELS 6 Xposition Yposition Zposition Zrotation Xrotation Yrotation
                  JOINT LeftFinger41
                  {
                    OFFSET -0.4882 -2.341 -0.6462
                    CHANNELS 6 Xposition Yposition Zposition Zrotation Xrotation Yrotation
                    JOINT LeftFinger42
                    {
                      OFFSET -0.3575 -1.7167 -0.4742
                      CHANNELS 6 Xposition Yposition Zposition Zrotation Xrotation Yrotation
                      End Site
                      {
                        OFFSET -0.4187 -1.5237 -0.3496
                      }
                    }
                  }
                }
                JOINT LeftFinger0
                {
                  OFFSET -1.42 -1.8761 1.4223
                  CHANNELS 6 Xposition Yposition Zposition Zrotation Xrotation Yrotation
                  JOINT LeftFinger01
                  {
                    OFFSET -1.1471 -3.4929 2.6334
                    CHANNELS 6 Xposition Yposition Zposition Zrotation Xrotation Yrotation
                    JOINT LeftFinger02
                    {
                      OFFSET -0.823 -2.3 1.6571
                      CHANNELS 6 Xposition Yposition Zposition Zrotation Xrotation Yrotation
                      End Site
                      {
                        OFFSET -0.5822 -1.6914 1.1582
                      }
                    }
                  }
                }
              }
            }
          }
        }
        JOINT RightCollar
        {
          OFFSET -2.2603 21.606 7.4023
          CHANNELS 6 Xposition Yposition Zposition Zrotation Xrotation Yrotation
          JOINT RightShoulder
          {
            OFFSET -13.5187 -1.1334 -5.0155
            CHANNELS 6 Xposition Yposition Zposition Zrotation Xrotation Yrotation
            JOINT RightElbow
            {
              OFFSET 0.0994 -28.0499 -0.2431
              CHANNELS 6 Xposition Yposition Zposition Zrotation Xrotation Yrotation
              JOINT RightWrist
              {
                OFFSET -0.0679 -23.3996 -0.1402
                CHANNELS 6 Xposition Yposition Zposition Zrotation Xrotation Yrotation
                JOINT RightFinger1
                {
                  OFFSET -0.7932 -9.0691 2.5189
                  CHANNELS 6 Xposition Yposition Zposition Zrotation Xrotation Yrotation
                  JOINT RightFinger11
                  {
                    OFFSET 0.8272 -3.3923 0.5977
                    CHANNELS 6 Xposition Yposition Zposition Zrotation Xrotation Yrotation
                    JOINT RightFinger12
                    {
                      OFFSET 0.565 -2.3158 0.4082
                      CHANNELS 6 Xposition Yposition Zposition Zrotation Xrotation Yrotation
                      End Site
                      {
                        OFFSET 0.4919 -1.6479 0.2673
                      }
                    }
                  }
                }
                JOINT RightFinger2
                {
                  OFFSET -0.916 -9.2044 0.2193
                  CHANNELS 6 Xposition Yposition Zposition Zrotation Xrotation Yrotation
                  JOINT RightFinger21
                  {
                    OFFSET -0.0117 -4.1944 -0.0248
                    CHANNELS 6 Xposition Yposition Zposition Zrotation Xrotation Yrotation
                    JOINT RightFinger22
                    {
                      OFFSET -0.0071 -2.3249 -0.0142
                      CHANNELS 6 Xposition Yposition Zposition Zrotation Xrotation Yrotation
                      End Site
                      {
                        OFFSET 0.1475 -2.0882 0.0028
                      }
                    }
                  }
                }
                JOINT RightFinger3
                {
                  OFFSET -0.6113 -8.7231 -2.0637
                  CHANNELS 6 Xposition Yposition Zposition Zrotation Xrotation Yrotation
                  JOINT RightFinger31
                  {
                    OFFSET 0.1927 -3.8059 -0.2383
                    CHANNELS 6 Xposition Yposition Zposition Zrotation Xrotation Yrotation
                    JOINT RightFinger32
                    {
                      OFFSET 0.1091 -2.1688 -0.1362
                      CHANNELS 6 Xposition Yposition Zposition Zrotation Xrotation Yrotation
                      End Site
                      {
                        OFFSET 0.2358 -1.9176 -0.0906
                      }
                    }
                  }
                }
                JOINT RightFinger4
                {
                  OFFSET 0.6151 -8.0947 -3.564
                  CHANNELS 6 Xposition Yposition Zposition Zrotation Xrotation Yrotation
                  JOINT RightFinger41
                  {
                    OFFSET 0.4882 -2.341 -0.6462
                    CHANNELS 6 Xposition Yposition Zposition Zrotation Xrotation Yrotation
                    JOINT RightFinger42
                    {
                      OFFSET 0.3574 -1.7166 -0.4742
                      CHANNELS 6 Xposition Yposition Zposition Zrotation Xrotation Yrotation
                      End Site
                      {
                        OFFSET 0.4187 -1.5237 -0.3496
                      }
                    }
                  }
                }
                JOINT RightFinger0
                {
                  OFFSET 1.4199 -1.8761 1.4221
                  CHANNELS 6 Xposition Yposition Zposition Zrotation Xrotation Yrotation
                  JOINT RightFinger01
                  {
                    OFFSET 1.1472 -3.4929 2.6336
                    CHANNELS 6 Xposition Yposition Zposition Zrotation Xrotation Yrotation
                    JOINT RightFinger02
                    {
                      OFFSET 0.8229 -2.3 1.6571
                      CHANNELS 6 Xposition Yposition Zposition Zrotation Xrotation Yrotation
                      End Site
                      {
                        OFFSET 0.5822 -1.6914 1.1582
                      }
                    }
                  }
                }
              }
            }
          }
        }
      }
    }
  }
  JOINT RightHip
  {
    OFFSET -9.412 3.9771 -0.7758
    CHANNELS 6 Xposition Yposition Zposition Zrotation Xrotation Yrotation
    JOINT RightKnee
    {
      OFFSET -0.7531 -40.938 0
      CHANNELS 6 Xposition Yposition Zposition Zrotation Xrotation Yrotation
      JOINT RightAnkle
      {
        OFFSET 0 -40.1986 0
        CHANNELS 6 Xposition Yposition Zposition Zrotation Xrotation Yrotation
        JOINT RightToe
        {
          OFFSET 0 -4.4182 9.239
          CHANNELS 6 Xposition Yposition Zposition Zrotation Xrotation Yrotation
          End Site
          {
            OFFSET 0 0 6.1981
          }
        }
      }
    }
  }
  JOINT LeftHip
  {
    OFFSET 9.4119 3.9773 -0.7758
    CHANNELS 6 Xposition Yposition Zposition Zrotation Xrotation Yrotation
    JOINT LeftKnee
    {
      OFFSET 0.7532 -40.9383 0
      CHANNELS 6 Xposition Yposition Zposition Zrotation Xrotation Yrotation
      JOINT LeftAnkle
      {
        OFFSET 0 -40.1986 0
        CHANNELS 6 Xposition Yposition Zposition Zrotation Xrotation Yrotation
        JOINT LeftToe
        {
          OFFSET 0 -4.4182 9.239
          CHANNELS 6 Xposition Yposition Zposition Zrotation Xrotation Yrotation
          End Site
          {
            OFFSET 0 0 6.1981
          }
        }
      }
    }
  }
}
MOTION
Frames:	4
Frame Time:	0.0333333
1.3871 65.1447 64.3181 -6.65829e-015 2.92415 180 0 8.7983 -4.7612 -0.197796 6.20711 -0.367699 0 8.0291 0.4195 -0.358428 12.4154 -0.720096 4.44089e-016 9.9351 -2.2114 -0.358429 12.4154 -0.720098 0 22.3885 -0.4656 7.15076 -27.7561 3.51268 -0.0001 12.643 3.4389 5.68871e-007 -15.0458 5.53432e-007 2.2603 21.606 7.4023 -7.436 0.860996 -35.4111 13.5163 -1.1332 -5.0146 31.6356 -9.421 23.944 -0.0995 -28.05 -0.2431 -32.9945 -39.6496 -26.0254 0.0679 -23.3996 -0.1402 1.45517 1.26834 0.671698 0.7932 -9.069 2.5189 -6.36111e-015 0 -9.54166e-015 -0.8272 -3.3923 0.5977 -6.67358e-007 3.98999e-006 5.23463e-007 -0.5649 -2.3158 0.4082 0 0 -3.18055e-015 0.9159 -9.2044 0.2193 -6.36111e-015 0 -9.54166e-015 0.0117 -4.1944 -0.0248 -0.0128211 0.00232734 8.04491e-005 0.0071 -2.3249 -0.0142 -0 0 9.54166e-015 0.6113 -8.7231 -2.0637 -6.36111e-015 0 -9.54166e-015 -0.1927 -3.8059 -0.2383 -0.0160444 0.00299783 0.000857767 -0.1091 -2.1688 -0.1362 0 0 -0 -0.6151 -8.0947 -3.5641 -6.36111e-015 0 -9.54166e-015 -0.4882 -2.341 -0.6462 -0.0125726 0.00311846 0.00282403 -0.3575 -1.7167 -0.4742 6.67365e-007 -3.99016e-006 -5.23421e-007 -1.42 -1.8761 1.4223 -6.36111e-015 0 -9.54166e-015 -1.1471 -3.4929 2.6334 -6.67358e-007 3.98999e-006 5.23463e-007 -0.823 -2.3 1.6571 0 0 -3.18055e-015 -2.2603 21.606 7.4023 8.59306 0.864497 31.8981 -13.5187 -1.1334 -5.0155 -28.3339 -9.56472 -18.1525 0.0994 -28.0499 -0.2431 33.3916 -40.425 26.1813 -0.0679 -23.3996 -0.1402 -4.6499 3.29484 0.286615 -0.7932 -9.0691 2.5189 4.33436e-006 1.6583e-007 6.36877e-007 0.8272 -3.3923 0.5977 -1.59028e-015 6.36111e-015 -6.36111e-015 0.565 -2.3158 0.4082 -3.18055e-015 6.36111e-015 -0 -0.916 -9.2044 0.2193 4.33436e-006 1.6583e-007 6.36877e-007 -0.0117 -4.1944 -0.0248 0.0129601 0.00231967 -9.31483e-005 -0.0071 -2.3249 -0.0142 1.59028e-015 0 -0 -0.6113 -8.7231 -2.0637 4.33436e-006 1.6583e-007 6.36877e-007 0.1927 -3.8059 -0.2383 0.0163261 0.00302747 -0.000871701 0.1091 -2.1688 -0.1362 1.59028e-015 0 9.54166e-015 0.6151 -8.0947 -3.564 4.33436e-006 1.6583e-007 6.36877e-007 0.4882 -2.341 -0.6462 0.0145707 0.00366897 -0.00325675 0.3574 -1.7166 -0.4742 2.54444e-014 -9.54166e-015 -1.90833e-014 1.4199 -1.8761 1.4221 4.33436e-006 1.6583e-007 6.36877e-007 1.1472 -3.4929 2.6336 -1.59028e-015 6.36111e-015 -6.36111e-015 0.8229 -2.3 1.6571 -3.18055e-015 6.36111e-015 -0 -9.412 3.9771 -0.7758 -3.48542 -10.4254 -8.44247 -0.7531 -40.938 -7.10543e-015 0.784283 32.2698 -0.071195 0 -40.1986 -7.10543e-015 8.77186 -15.4146 -8.59909 0 -4.4182 9.239 -7.91202e-007 -1.18539e-006 -1.67304e-006 9.4119 3.9773 -0.7758 6.61863 -10.4201 10.7472 0.7532 -40.9383 0 -0.867396 32.2189 0.101956 0 -40.1986 7.10543e-015 -10.9729 -15.1984 4.18691 0 -4.4182 9.239 -8.45984e-007 -3.03634e-007 -4.92294e-008 
1.38702 65.1058 64.4504 -6.72909e-015 2.34726 180 2.22045e-016 8.7983 -4.7612 -0.197116 6.1119 -0.368025 -4.44089e-016 8.0291 0.4195 -0.357563 12.2249 -0.720974 -4.44089e-016 9.9351 -2.2114 -0.357563 12.225 -0.720976 0 22.3885 -0.4656 7.10674 -27.6195 3.48374 -0.0001 12.643 3.4389 -9.38179e-007 -15.2665 -3.37577e-007 2.2603 21.606 7.4023 -7.3372 0.986537 -35.2612 13.5163 -1.1332 -5.0146 31.5297 -9.35838 23.8917 -0.0995 -28.05 -0.2431 -33.4205 -39.8834 -26.3007 0.0679 -23.3996 -0.1402 1.72526 1.16468 0.466466 0.7932 -9.069 2.5189 3.18055e-015 -3.18055e-015 -6.36111e-015 -0.8272 -3.3923 0.5977 1.68342e-006 -5.72724e-007 4.72224e-006 -0.5649 -2.3158 0.4082 -1.68342e-006 5.72724e-007 -4.72224e-006 0.9159 -9.2044 0.2193 3.18055e-015 -3.18055e-015 -6.36111e-015 0.0117 -4.1944 -0.0248 -0.0128094 0.00232317 8.89005e-005 0.0071 -2.3249 -0.0142 8.9722e-007 3.11132e-006 2.86736e-006 0.6113 -8.7231 -2.0637 3.18055e-015 -3.18055e-015 -6.36111e-015 -0.1927 -3.8059 -0.2383 -0.0160478 0.0029937 0.000865819 -0.1091 -2.1688 -0.1362 6.36111e-015 -6.36111e-015 9.54166e-015 -0.6151 -8.0947 -3.5641 3.18055e-015 -3.18055e-015 -6.36111e-015 -0.4882 -2.341 -0.6462 -0.0125946 0.00312429 0.00282762 -0.3575 -1.7167 -0.4742 3.18055e-015 -3.18055e-015 -0 -1.42 -1.8761 1.4223 3.18055e-015 -3.18055e-015 -6.36111e-015 -1.1471 -3.4929 2.6334 1.68342e-006 -5.72724e-007 4.72224e-006 -0.823 -2.3 1.6571 -1.68342e-006 5.72724e-007 -4.72224e-006 -2.2603 21.606 7.4023 8.50061 0.994609 31.7552 -13.5187 -1.1334 -5.0155 -28.3339 -9.56472 -18.1525 0.0994 -28.0499 -0.2431 33.8008 -40.6464 26.4488 -0.0679 -23.3996 -0.1402 -4.90833 3.14999 0.469339 -0.7932 -9.0691 2.5189 -6.36111e-015 -3.49861e-014 1.27222e-014 0.8272 -3.3923 0.5977 4.91138e-006 7.04093e-006 5.87535e-006 0.565 -2.3158 0.4082 3.18055e-015 0 3.18055e-015 -0.916 -9.2044 0.2193 -6.36111e-015 -3.49861e-014 1.27222e-014 -0.0117 -4.1944 -0.0248 0.0129588 0.00231569 -7.91945e-005 -0.0071 -2.3249 -0.0142 6.36111e-015 6.36111e-015 3.18055e-015 -0.6113 -8.7231 -2.0637 -6.36111e-015 -3.49861e-014 1.27222e-014 0.1927 -3.8059 -0.2383 0.0163486 0.00303901 -0.000876467 0.1091 -2.1688 -0.1362 2.92708e-006 5.08458e-006 1.56777e-006 0.6151 -8.0947 -3.564 -6.36111e-015 -3.49861e-014 1.27222e-014 0.4882 -2.341 -0.6462 0.0146019 0.00369263 -0.00326684 0.3574 -1.7166 -0.4742 6.36111e-015 6.36111e-015 3.18055e-015 1.4199 -1.8761 1.4221 -6.36111e-015 -3.49861e-014 1.27222e-014 1.1472 -3.4929 2.6336 4.91138e-006 7.04093e-006 5.87535e-006 0.8229 -2.3 1.6571 3.18055e-015 0 3.18055e-015 -9.412 3.9771 -0.7758 -3.55147 -11.1549 -8.69288 -0.7531 -40.938 0 0.783582 32.2661 -0.0716091 0 -40.1986 1.42109e-014 8.77588 -15.3916 -8.38645 0 -4.4182 9.239 -1.73861e-006 -1.59259e-007 1.48314e-006 9.4119 3.9773 -0.7758 6.65802 -11.1498 10.8961 0.7532 -40.9383 -7.10543e-015 -0.867206 32.213 0.102005 0 -40.1986 7.10543e-015 -10.9728 -15.195 4.18744 0 -4.4182 9.239 3.99194e-007 -2.4369e-007 1.64545e-006 
1.38697 65.0676 64.5832 -6.79982e-015 1.77043 180 2.22045e-016 8.7983 -4.7612 -0.196436 6.0167 -0.368346 4.44089e-016 8.0291 0.4195 -0.356698 12.0345 -0.72184 4.44089e-016 9.9351 -2.2114 -0.3567 12.0346 -0.721843 8.88178e-016 22.3885 -0.4656 7.06284 -27.4829 3.45496 -0.0001 12.643 3.4389 1.05918e-006 -15.4871 -2.99079e-007 2.2603 21.606 7.4023 -7.23872 1.11232 -35.1114 13.5163 -1.1332 -5.0146 31.4241 -9.29576 23.8396 -0.0995 -28.05 -0.2431 -33.8496 -40.1154 -26.5792 0.0679 -23.3996 -0.1402 1.99502 1.0601 0.261726 0.7932 -9.069 2.5189 1.33122e-006 -7.10016e-006 -1.05211e-006 -0.8272 -3.3923 0.5977 4.23262e-006 -4.71006e-007 2.33878e-007 -0.5649 -2.3158 0.4082 -2.38969e-007 -5.0046e-006 -3.39022e-006 0.9159 -9.2044 0.2193 1.33122e-006 -7.10016e-006 -1.05211e-006 0.0117 -4.1944 -0.0248 -0.0128339 0.0023226 8.86407e-005 0.0071 -2.3249 -0.0142 -1.02558e-006 -1.89366e-006 -5.24612e-006 0.6113 -8.7231 -2.0637 1.33122e-006 -7.10016e-006 -1.05211e-006 -0.1927 -3.8059 -0.2383 -0.0160717 0.00299324 0.000858927 -0.1091 -2.1688 -0.1362 -1.69119e-006 -4.00792e-006 -4.72009e-006 -0.6151 -8.0947 -3.5641 1.33122e-006 -7.10016e-006 -1.05211e-006 -0.4882 -2.341 -0.6462 -0.0125717 0.00311341 0.00282373 -0.3575 -1.7167 -0.4742 6.65617e-007 -6.45907e-007 -5.26016e-007 -1.42 -1.8761 1.4223 1.33122e-006 -7.10016e-006 -1.05211e-006 -1.1471 -3.4929 2.6334 4.23262e-006 -4.71006e-007 2.33878e-007 -0.823 -2.3 1.6571 -2.38969e-007 -5.0046e-006 -3.39022e-006 -2.2603 21.606 7.4023 8.40848 1.12493 31.6125 -13.5187 -1.1334 -5.0155 -28.3339 -9.56472 -18.1525 0.0994 -28.0499 -0.2431 34.2126 -40.8662 26.7192 -0.0679 -23.3996 -0.1402 -5.1662 3.00432 0.651401 -0.7932 -9.0691 2.5189 3.18055e-015 4.33297e-006 6.36111e-015 0.8272 -3.3923 0.5977 3.18055e-015 -3.18055e-015 -3.18055e-015 0.565 -2.3158 0.4082 7.05031e-007 3.74669e-006 -4.76651e-007 -0.916 -9.2044 0.2193 3.18055e-015 4.33297e-006 6.36111e-015 -0.0117 -4.1944 -0.0248 0.012908 0.0023081 -7.97096e-005 -0.0071 -2.3249 -0.0142 -9.37854e-007 3.06168e-006 -6.44676e-006 -0.6113 -8.7231 -2.0637 3.18055e-015 4.33297e-006 6.36111e-015 0.1927 -3.8059 -0.2383 0.0163515 0.00303211 -0.000868146 0.1091 -2.1688 -0.1362 -2.82015e-006 1.20502e-006 1.90645e-006 0.6151 -8.0947 -3.564 3.18055e-015 4.33297e-006 6.36111e-015 0.4882 -2.341 -0.6462 0.0145286 0.00366862 -0.00324185 0.3574 -1.7166 -0.4742 7.05044e-007 2.79625e-006 -4.76602e-007 1.4199 -1.8761 1.4221 3.18055e-015 4.33297e-006 6.36111e-015 1.1472 -3.4929 2.6336 3.18055e-015 -3.18055e-015 -3.18055e-015 0.8229 -2.3 1.6571 7.05031e-007 3.74669e-006 -4.76651e-007 -9.412 3.9771 -0.7758 -3.62116 -11.8821 -8.94482 -0.7531 -40.938 0 0.783339 32.2606 -0.0719481 -3.55271e-015 -40.1986 0 8.77985 -15.3687 -8.17377 0 -4.4182 9.239 -8.66944e-008 8.54069e-008 3.2178e-006 9.4119 3.9773 -0.7758 6.69952 -11.8801 11.0459 0.7532 -40.9383 7.10543e-015 -0.866865 32.208 0.102027 0 -40.1986 0 -10.9728 -15.1916 4.18795 0 -4.4182 9.239 1.86467e-008 -1.18655e-007 -1.62174e-006 
1.38696 65.0302 64.7163 -6.8705e-015 1.1937 180 2.22045e-016 8.7983 -4.7612 -0.195755 5.9215 -0.36866 -4.44089e-016 8.0291 0.4195 -0.355836 11.8441 -0.722696 4.44089e-016 9.9351 -2.2114 -0.355837 11.8442 -0.722697 0 22.3885 -0.4656 7.01905 -27.3463 3.42631 -0.0001 12.643 3.4389 -1.73726e-006 -15.7077 -1.37298e-007 2.2603 21.606 7.4023 -7.14057 1.23839 -34.9619 13.5163 -1.1332 -5.0146 31.3183 -9.23291 23.7875 -0.0995 -28.05 -0.2431 -34.2814 -40.3461 -26.861 0.0679 -23.3996 -0.1402 2.26434 0.954599 0.0575059 0.7932 -9.069 2.5189 -1.94565e-006 -5.76078e-007 -8.10613e-006 -0.8272 -3.3923 0.5977 -9.05939e-006 -2.71609e-006 1.07714e-005 -0.5649 -2.3158 0.4082 -3.2751e-006 3.19e-007 -7.05141e-006 0.9159 -9.2044 0.2193 -1.94565e-006 -5.76078e-007 -8.10613e-006 0.0117 -4.1944 -0.0248 -0.0127895 0.00230878 8.59718e-005 0.0071 -2.3249 -0.0142 -3.02839e-006 3.98101e-006 -3.66314e-006 0.6113 -8.7231 -2.0637 -1.94565e-006 -5.76078e-007 -8.10613e-006 -0.1927 -3.8059 -0.2383 -0.0160222 0.00299215 0.000854652 -0.1091 -2.1688 -0.1362 -4.35784e-006 -4.67431e-006 -2.60853e-006 -0.6151 -8.0947 -3.5641 -1.94565e-006 -5.76078e-007 -8.10613e-006 -0.4882 -2.341 -0.6462 -0.012589 0.00311154 0.00282639 -0.3575 -1.7167 -0.4742 1.9942e-006 -4.13488e-006 -1.58194e-006 -1.42 -1.8761 1.4223 -1.94565e-006 -5.76078e-007 -8.10613e-006 -1.1471 -3.4929 2.6334 -9.05939e-006 -2.71609e-006 1.07714e-005 -0.823 -2.3 1.6571 -3.2751e-006 3.19e-007 -7.05141e-006 -2.2603 21.606 7.4023 8.31668 1.25549 31.4701 -13.5187 -1.1334 -5.0155 -28.334 -9.56471 -18.1525 0.0994 -28.0499 -0.2431 34.6272 -41.0846 26.9926 -0.0679 -23.3996 -0.1402 -5.42362 2.8579 0.832712 -0.7932 -9.0691 2.5189 3.18055e-015 -3.49861e-014 9.54166e-015 0.8272 -3.3923 0.5977 7.03527e-007 3.74958e-006 -4.79163e-007 0.565 -2.3158 0.4082 2.00805e-006 -6.78868e-007 4.29719e-006 -0.916 -9.2044 0.2193 3.18055e-015 -3.49861e-014 9.54166e-015 -0.0117 -4.1944 -0.0248 0.0129408 0.00232363 -8.92964e-005 -0.0071 -2.3249 -0.0142 3.18055e-015 -3.18055e-015 3.18055e-015 -0.6113 -8.7231 -2.0637 3.18055e-015 -3.49861e-014 9.54166e-015 0.1927 -3.8059 -0.2383 0.0163608 0.00303537 -0.000880376 0.1091 -2.1688 -0.1362 9.54166e-015 6.36111e-015 3.18055e-015 0.6151 -8.0947 -3.564 3.18055e-015 -3.49861e-014 9.54166e-015 0.4882 -2.341 -0.6462 0.0145486 0.00367068 -0.00325499 0.3574 -1.7166 -0.4742 9.54166e-015 -9.54166e-015 -1.90833e-014 1.4199 -1.8761 1.4221 3.18055e-015 -3.49861e-014 9.54166e-015 1.1472 -3.4929 2.6336 7.03527e-007 3.74958e-006 -4.79163e-007 0.8229 -2.3 1.6571 2.00805e-006 -6.78868e-007 4.29719e-006 -9.412 3.9771 -0.7758 -3.69437 -12.6073 -9.19827 -0.7531 -40.938 0 0.783326 32.2537 -0.0722212 0 -40.1986 -7.10543e-015 8.78381 -15.3458 -7.96116 0 -4.4182 9.239 6.4605e-016 0 6.36111e-015 9.4119 3.9773 -0.7758 6.74306 -12.6101 11.1967 0.7532 -40.9383 0 -0.866478 32.2029 0.10203 0 -40.1986 -7.10543e-015 -10.9728 -15.1882 4.18846 0 -4.4182 9.239 -2.98177e-016 -1.12462e-007 3.18055e-015 
